<?xml version="1.0" encoding="utf-8"?>
<!-- Generator: Adobe Illustrator 23.0.3, SVG Export Plug-In . SVG Version: 6.00 Build 0)  -->
<svg version="1.1" id="Layer_1" xmlns="http://www.w3.org/2000/svg" xmlns:xlink="http://www.w3.org/1999/xlink" x="0px" y="0px"
	 width="32px" height="32px" viewBox="0 0 32 32" style="enable-background:new 0 0 32 32;" xml:space="preserve">
<style type="text/css">
	.st0{fill:#FFFFFF;}
	.st1{fill:#0357A3;}
	.st2{fill:#B01C15;}
	.st3{fill:#5E8511;}
	.st4{fill:#D89F00;}
</style>
<g>
	<path class="st0" d="M10.7,19.5l-0.2-0.1C7.7,17.5,6,14.4,6,11l0-0.3C6.2,5.3,10.6,1,16,1c5.4,0,9.8,4.3,10,9.7l0,0.5
		c-0.1,3.3-1.7,6.3-4.4,8.1l-0.2,0.1L16,29.8L10.7,19.5z"/>
	<path class="st1" d="M16,2c4.9,0,8.8,3.8,9,8.7l0,0.4c0,3-1.5,5.7-4,7.4l-0.4,0.3l-0.2,0.5L16,27.6l-4.3-8.4l-0.2-0.5L11,18.5
		c-2.5-1.6-3.9-4.4-4-7.3l0-0.5C7.2,5.8,11.1,2,16,2 M16,0C10,0,5.2,4.7,5,10.7h0l0,0c0,0.1,0,0.2,0,0.3c0,3.8,1.9,7.2,4.9,9.1
		L16,32l6.1-11.9c2.9-2,4.9-5.3,4.9-9.1c0-0.1,0-0.2,0-0.3l0,0h0C26.8,4.7,22,0,16,0L16,0z"/>
</g>
<g>
	<path class="st1" d="M21,11c0,2.8-3,5-5,7c-2-2-5-4.2-5-7s2.2-5,5-5S21,8.2,21,11z"/>
</g>
</svg>
