<?xml version="1.0" encoding="utf-8"?>
<!-- Generator: Adobe Illustrator 23.0.3, SVG Export Plug-In . SVG Version: 6.00 Build 0)  -->
<svg version="1.1" id="Layer_1" xmlns="http://www.w3.org/2000/svg" xmlns:xlink="http://www.w3.org/1999/xlink" x="0px" y="0px"
	 width="32px" height="32px" viewBox="0 0 32 32" style="enable-background:new 0 0 32 32;" xml:space="preserve">
<style type="text/css">
	.st0{fill:#FFFFFF;}
	.st1{fill:#0357A3;}
	.st2{fill:#B01C15;}
	.st3{fill:#5E8511;}
	.st4{fill:#D89F00;}
</style>
<g>
	<path class="st1" d="M27,10.7L27,10.7C26.8,4.7,22,0,16,0S5.2,4.7,5,10.7h0l0,0c0,0.1,0,0.2,0,0.3c0,3.8,1.9,7.2,4.9,9.1L16,32
		l6.1-11.9c2.9-2,4.9-5.3,4.9-9.1C27,10.9,27,10.8,27,10.7L27,10.7z"/>
</g>
<g>
	<path class="st0" d="M21,11c0,2.8-3,5-5,7c-2-2-5-4.2-5-7s2.2-5,5-5S21,8.2,21,11z"/>
</g>
</svg>
