<?xml version="1.0" encoding="utf-8"?>
<!-- Generator: Adobe Illustrator 23.0.3, SVG Export Plug-In . SVG Version: 6.00 Build 0)  -->
<svg version="1.1" id="Layer_1" xmlns="http://www.w3.org/2000/svg" xmlns:xlink="http://www.w3.org/1999/xlink" x="0px" y="0px"
	 width="32px" height="32px" viewBox="0 0 32 32" style="enable-background:new 0 0 32 32;" xml:space="preserve">
<style type="text/css">
	.st0{fill:#FFFFFF;}
	.st1{fill:#0357A3;}
	.st2{fill:#B01C15;}
	.st3{fill:#5E8511;}
	.st4{fill:#D89F00;}
</style>
<g>
	<path class="st0" d="M11.5,21H7c-0.6,0-1-0.4-1-1V2c0-0.6,0.4-1,1-1h18c0.6,0,1,0.4,1,1v18c0,0.6-0.4,1-1,1h-4.5L16,29.8L11.5,21z"
		/>
	<path class="st4" d="M25,2v18h-3.8h-1.2l-0.6,1.1L16,27.6l-3.4-6.6L12.1,20h-1.2H7V2H25 M25,0H7C5.9,0,5,0.9,5,2v18
		c0,1.1,0.9,2,2,2h3.8L16,32l5.2-10H25c1.1,0,2-0.9,2-2V2C27,0.9,26.1,0,25,0L25,0z"/>
</g>
<polygon class="st4" points="16,4 18.2,8.6 23,9.3 19.5,12.9 20.3,18 16,15.6 11.7,18 12.5,12.9 9,9.3 13.8,8.6 "/>
</svg>
