<?xml version="1.0" encoding="UTF-8" standalone="no"?>
<!-- Created with Inkscape (http://www.inkscape.org/) -->

<svg
   xmlns:dc="http://purl.org/dc/elements/1.1/"
   xmlns:cc="http://creativecommons.org/ns#"
   xmlns:rdf="http://www.w3.org/1999/02/22-rdf-syntax-ns#"
   xmlns:svg="http://www.w3.org/2000/svg"
   xmlns="http://www.w3.org/2000/svg"
   xmlns:sodipodi="http://sodipodi.sourceforge.net/DTD/sodipodi-0.dtd"
   xmlns:inkscape="http://www.inkscape.org/namespaces/inkscape"
   width="98.75264mm"
   height="40.394875mm"
   viewBox="0 0 349.91093 143.13144"
   id="svg2"
   version="1.1"
   inkscape:version="0.91 r13725"
   sodipodi:docname="VEI-logo-RGB.svg"
   inkscape:export-filename="\\veapp03\Groups\VEI\Sales\Marketing\Logos\VEI Logo_XSmall.png"
   inkscape:export-xdpi="74.826324"
   inkscape:export-ydpi="74.826324">
  <defs
     id="defs4">
    <clipPath
       id="clipPath3350"
       clipPathUnits="userSpaceOnUse">
      <path
         inkscape:connector-curvature="0"
         id="path3352"
         d="m 0,141.732 283.465,0 L 283.465,0 0,0 0,141.732 Z" />
    </clipPath>
    <clipPath
       id="clipPath4192"
       clipPathUnits="userSpaceOnUse">
      <path
         inkscape:connector-curvature="0"
         id="path4194"
         d="m 0,141.732 283.465,0 L 283.465,0 0,0 0,141.732 Z" />
    </clipPath>
  </defs>
  <sodipodi:namedview
     id="base"
     pagecolor="#ffffff"
     bordercolor="#666666"
     borderopacity="1.0"
     inkscape:pageopacity="0.0"
     inkscape:pageshadow="2"
     inkscape:zoom="1.4"
     inkscape:cx="185.33659"
     inkscape:cy="22.269809"
     inkscape:document-units="px"
     inkscape:current-layer="layer1"
     showgrid="false"
     inkscape:window-width="1920"
     inkscape:window-height="1017"
     inkscape:window-x="-8"
     inkscape:window-y="-8"
     inkscape:window-maximized="1"
     fit-margin-top="0"
     fit-margin-left="0"
     fit-margin-right="0"
     fit-margin-bottom="0" />
  <metadata
     id="metadata7">
    <rdf:RDF>
      <cc:Work
         rdf:about="">
        <dc:format>image/svg+xml</dc:format>
        <dc:type
           rdf:resource="http://purl.org/dc/dcmitype/StillImage" />
        <dc:title></dc:title>
      </cc:Work>
    </rdf:RDF>
  </metadata>
  <g
     inkscape:label="Layer 1"
     inkscape:groupmode="layer"
     id="layer1"
     style="display:inline"
     transform="translate(98.848457,-591.62004)">
    <path
       inkscape:connector-curvature="0"
       id="path4431"
       style="fill:#0357a3;fill-opacity:1;fill-rule:nonzero;stroke:none"
       d="m -43.589088,636.77879 -17.327185,0 -12.93031,-35.37843 18.442965,0 2.888125,15.3589 c 0.590935,3.21657 0.85328,6.69547 0.85328,6.69547 l 0.13125,0 c 0,0 0.39375,-3.41297 1.116875,-6.69547 l 3.346095,-15.3589 16.40984,0 -12.930935,35.37843"
       inkscape:export-xdpi="300.03"
       inkscape:export-ydpi="300.03" />
    <path
       inkscape:connector-curvature="0"
       id="path4433"
       style="fill:#0357a3;fill-opacity:1;fill-rule:nonzero;stroke:none"
       d="m -7.1694025,619.64739 c -4.0039055,0.13187 -7.0885905,1.11577 -7.0885905,5.31625 0,3.08594 1.838435,4.46344 5.184998,4.46344 0.9196875,0 1.4446875,-0.0659 1.9035925,-0.19719 l 0,-9.5825 z m -2.62578,18.11594 c -13.2579705,0 -20.6756255,-3.93813 -20.6756255,-12.14234 0,-8.99298 11.093125,-11.48689 23.3014055,-12.40548 l 0,-1.11625 c 0,-1.90375 -1.9035925,-2.4939 -5.4467155,-2.4939 -4.069845,0 -8.66391,0.98438 -11.81516,2.10015 l -3.479059,-8.53266 c 3.413749,-1.1164 9.713749,-2.7564 18.7714045,-2.7564 11.0278125,0 18.1823425,4.13516 18.1823425,14.70281 l 0,19.88703 c -3.741405,1.64125 -10.30578,2.75704 -18.8385925,2.75704"
       inkscape:export-xdpi="300.03"
       inkscape:export-ydpi="300.03" />
    <path
       inkscape:connector-curvature="0"
       id="path4435"
       style="fill:#0357a3;fill-opacity:1;fill-rule:nonzero;stroke:none"
       d="m 38.177316,636.77879 0,-24.02281 c 0,-1.77188 -0.722031,-3.01953 -3.348437,-3.01953 -0.852657,0 -1.77125,0.13125 -2.296094,0.19656 l 0,26.84578 -17.327968,0 0,-33.60594 c 4.594843,-1.64125 11.61625,-2.7564 19.689999,-2.7564 14.965781,0 20.609687,4.39766 20.609687,12.20765 l 0,24.15469 -17.327187,0"
       inkscape:export-xdpi="300.03"
       inkscape:export-ydpi="300.03" />
    <path
       inkscape:connector-curvature="0"
       id="path4437"
       style="fill:#0357a3;fill-opacity:1;fill-rule:nonzero;stroke:none"
       d="m 62.059347,636.77879 0,-45.15875 30.45625,0 0,10.17391 -12.40625,0 0,7.28641 10.503125,0 0,9.91155 -10.503125,0 0,7.61282 12.40625,0 0,10.17406 -30.45625,0"
       inkscape:export-xdpi="300.03"
       inkscape:export-ydpi="300.03" />
    <path
       inkscape:connector-curvature="0"
       id="path4439"
       style="fill:#0357a3;fill-opacity:1;fill-rule:nonzero;stroke:none"
       d="m 110.09997,637.76333 c -5.64687,0 -11.028123,-1.24704 -13.917183,-2.75704 l 3.939063,-9.51656 c 1.57656,1.115 4.85625,2.03422 7.22031,2.03422 1.44375,0 2.49375,-0.65672 2.49375,-1.64062 0,-4.26625 -12.668748,-3.08532 -12.668748,-13.0614 0,-6.82688 6.367188,-12.40548 15.556248,-12.40548 6.10468,0 9.78125,0.6561 14.24375,2.7564 l -3.74063,8.46673 c -1.24844,-0.78735 -3.74219,-1.70657 -6.17031,-1.70657 -1.77188,0 -2.69063,0.78798 -2.69063,1.83844 0,4.46281 13.52032,3.60954 13.52032,13.65235 0,7.08859 -6.49844,12.33953 -17.78594,12.33953"
       inkscape:export-xdpi="300.03"
       inkscape:export-ydpi="300.03" />
    <path
       inkscape:connector-curvature="0"
       id="path4441"
       style="fill:#0357a3;fill-opacity:1;fill-rule:nonzero;stroke:none"
       d="m 143.89528,637.76333 c -5.64531,0 -11.02656,-1.24704 -13.91562,-2.75704 l 3.93906,-9.51656 c 1.575,1.115 4.85625,2.03422 7.22031,2.03422 1.44375,0 2.49375,-0.65672 2.49375,-1.64062 0,-4.26625 -12.66875,-3.08532 -12.66875,-13.0614 0,-6.82688 6.36719,-12.40548 15.55625,-12.40548 6.10469,0 9.78125,0.6561 14.24375,2.7564 l -3.74062,8.46673 c -1.24844,-0.78735 -3.74219,-1.70657 -6.17032,-1.70657 -1.77187,0 -2.69062,0.78798 -2.69062,1.83844 0,4.46281 13.52031,3.60954 13.52031,13.65235 0,7.08859 -6.49844,12.33953 -17.7875,12.33953"
       inkscape:export-xdpi="300.03"
       inkscape:export-ydpi="300.03" />
    <path
       inkscape:connector-curvature="0"
       id="path4443"
       style="fill:#0357a3;fill-opacity:1;fill-rule:nonzero;stroke:none"
       d="m 185.36872,609.08035 c -3.47813,0 -5.38125,2.82235 -4.79063,7.87658 l 8.92656,-1.24752 c 0,-4.13515 -1.11562,-6.62906 -4.13593,-6.62906 z m -3.47813,14.89939 c 0.98594,2.42859 2.75782,3.61015 7.35157,3.61015 5.05312,0 9.71406,-0.85391 12.07656,-1.7725 l 3.08593,9.1889 c -3.47968,1.24751 -8.79531,2.75704 -17.26249,2.75704 -14.96563,0 -21.79219,-8.79579 -21.79219,-18.77142 0,-10.1739 6.62969,-18.57546 20.80625,-18.57546 14.17968,0 19.56093,8.59796 19.56093,20.67563 l -23.82656,2.88766"
       inkscape:export-xdpi="300.03"
       inkscape:export-ydpi="300.03" />
    <path
       inkscape:connector-curvature="0"
       id="path4445"
       style="fill:#0357a3;fill-opacity:1;fill-rule:nonzero;stroke:none"
       d="m 233.7359,636.77879 0,-24.02281 c 0,-1.77188 -0.72187,-3.01953 -3.34843,-3.01953 -0.85313,0 -1.77188,0.13125 -2.29688,0.19656 l 0,26.84578 -17.32812,0 0,-33.60594 c 4.59531,-1.64125 11.61875,-2.7564 19.69062,-2.7564 14.96563,0 20.60938,4.39766 20.60938,12.20765 l 0,24.15469 -17.32657,0"
       inkscape:export-xdpi="300.03"
       inkscape:export-ydpi="300.03" />
    <path
       inkscape:connector-curvature="0"
       id="path4447"
       style="fill:#0357a3;fill-opacity:1;fill-rule:nonzero;stroke:none"
       d="m 62.282784,671.24833 0,-22.59454 4.334375,0 0,22.59454 -4.334375,0"
       inkscape:export-xdpi="300.03"
       inkscape:export-ydpi="300.03" />
    <path
       inkscape:connector-curvature="0"
       id="path4449"
       style="fill:#0357a3;fill-opacity:1;fill-rule:nonzero;stroke:none"
       d="m 83.231222,671.24833 0,-12.64344 c 0,-2.26625 -2.1,-3.12063 -4.464063,-3.12063 -1.28125,0 -2.528125,0.22875 -3.317187,0.52359 l 0,15.24048 -4.104688,0 0,-16.87985 c 1.804688,-0.72328 4.629688,-1.28172 7.651563,-1.28172 5.023438,0 8.373438,1.57719 8.373438,5.45109 l 0,12.71048 -4.139063,0"
       inkscape:export-xdpi="300.03"
       inkscape:export-ydpi="300.03" />
    <path
       inkscape:connector-curvature="0"
       id="path4451"
       style="fill:#0357a3;fill-opacity:1;fill-rule:nonzero;stroke:none"
       d="m 96.496847,671.70801 c -2.398435,0 -4.66406,-0.62437 -5.8125,-1.28062 l 1.082815,-2.43219 c 0.821875,0.5261 2.46406,1.05281 4.204685,1.05281 2.101565,0 3.776565,-1.25 3.776565,-2.76062 0,-4.20344 -8.440625,-2.23204 -8.440625,-8.01203 0,-2.62766 2.5625,-5.1886 6.73281,-5.1886 2.364063,0 4.104693,0.55844 5.418753,1.28172 l -1.08438,2.19907 c -0.62343,-0.39297 -1.90625,-1.01751 -3.514058,-1.01751 -2.134375,0 -3.44844,1.1811 -3.44844,2.52812 0,3.94173 8.604688,2.20033 8.604688,8.11157 0,2.82468 -2.92187,5.51828 -7.520313,5.51828"
       inkscape:export-xdpi="300.03"
       inkscape:export-ydpi="300.03" />
    <path
       inkscape:connector-curvature="0"
       id="path4453"
       style="fill:#0357a3;fill-opacity:1;fill-rule:nonzero;stroke:none"
       d="m 114.79059,671.64208 c -4.03906,0 -5.58281,-2.39688 -5.58281,-4.79438 l 0,-11.00344 -2.69219,0 0,-2.29797 2.69219,0 0,-3.97328 4.10469,-1.0511 0,5.02438 3.74375,0 0,2.29797 -3.74375,0 0,10.80515 c 0,1.37938 0.8875,2.46392 2.62656,2.46392 0.39531,0 0.72344,-0.0652 1.11719,-0.16485 l 0,2.33156 c -0.39375,0.1636 -1.21406,0.36204 -2.26563,0.36204"
       inkscape:export-xdpi="300.03"
       inkscape:export-ydpi="300.03" />
    <path
       inkscape:connector-curvature="0"
       id="path4455"
       style="fill:#0357a3;fill-opacity:1;fill-rule:nonzero;stroke:none"
       d="m 129.66559,655.87785 c -1.64218,-0.4589 -3.975,-0.39359 -5.12343,0.1636 l 0,15.20688 -4.10469,0 0,-16.87985 c 2.03594,-0.82219 4.36875,-1.28172 8.14531,-1.28172 0.68906,0 1.54375,0.0652 1.96875,0.0989 l -0.88594,2.6922"
       inkscape:export-xdpi="300.03"
       inkscape:export-ydpi="300.03" />
    <path
       inkscape:connector-curvature="0"
       id="path4457"
       style="fill:#0357a3;fill-opacity:1;fill-rule:nonzero;stroke:none"
       d="m 140.96091,671.70801 c -5.45313,0 -7.84844,-2.33156 -7.84844,-6.11031 l 0,-12.05141 4.10469,0 0,12.2486 c 0,1.87187 1.27968,3.31844 3.94062,3.31844 1.54375,0 2.75781,-0.23017 3.51406,-0.59203 l 0,-14.97501 4.10469,0 0,16.8811 c -1.51094,0.68859 -4.30156,1.28062 -7.81562,1.28062"
       inkscape:export-xdpi="300.03"
       inkscape:export-ydpi="300.03" />
    <path
       inkscape:connector-curvature="0"
       id="path4459"
       style="fill:#0357a3;fill-opacity:1;fill-rule:nonzero;stroke:none"
       d="m 176.84997,671.24833 0,-12.67704 c 0,-1.60828 -1.14844,-3.08703 -3.84063,-3.08703 -1.51093,0 -2.85781,0.4614 -3.875,1.34642 l 0,14.41765 -4.13906,0 0,-12.77469 c 0,-1.77484 -1.47656,-2.98938 -4.20312,-2.98938 -1.54219,0 -2.65938,0.22875 -3.51407,0.55719 l 0,15.20688 -4.10468,0 0,-16.87985 c 1.9375,-0.75624 4.49843,-1.28172 7.65156,-1.28172 3.31562,0 5.18906,0.85454 6.4375,2.03797 1.44375,-1.15047 3.57969,-2.03797 6.63281,-2.03797 4.99219,0 7.05938,2.7575 7.05938,5.45109 l 0,12.71048 -4.10469,0"
       inkscape:export-xdpi="300.03"
       inkscape:export-ydpi="300.03" />
    <path
       inkscape:connector-curvature="0"
       id="path4461"
       style="fill:#0357a3;fill-opacity:1;fill-rule:nonzero;stroke:none"
       d="m 193.33278,655.38536 c -2.825,0 -5.05781,2.06905 -4.95937,6.46969 l 9.45781,-1.21454 c 0,-3.64562 -1.77501,-5.25515 -4.49844,-5.25515 z m -4.69688,8.37407 c 0.39376,3.51562 2.49532,5.28858 6.04219,5.28858 2.39844,0 4.33437,-0.52671 5.41875,-1.01922 l 0.98594,2.3986 c -1.34688,0.62266 -3.67813,1.28062 -6.76563,1.28062 -5.87812,0 -9.65468,-3.28562 -9.65468,-9.35858 0,-5.8472 3.5125,-9.26267 8.83437,-9.26267 5.38594,0 8.30781,3.11954 8.30781,9.06438 l -13.16875,1.60829"
       inkscape:export-xdpi="300.03"
       inkscape:export-ydpi="300.03" />
    <path
       inkscape:connector-curvature="0"
       id="path4463"
       style="fill:#0357a3;fill-opacity:1;fill-rule:nonzero;stroke:none"
       d="m 217.40153,671.24833 0,-12.64344 c 0,-2.26625 -2.10156,-3.12063 -4.46563,-3.12063 -1.27968,0 -2.52812,0.22875 -3.31718,0.52359 l 0,15.24048 -4.10469,0 0,-16.87985 c 1.80469,-0.72328 4.63125,-1.28172 7.65156,-1.28172 5.02344,0 8.375,1.57719 8.375,5.45109 l 0,12.71048 -4.13906,0"
       inkscape:export-xdpi="300.03"
       inkscape:export-ydpi="300.03" />
    <path
       inkscape:connector-curvature="0"
       id="path4465"
       style="fill:#0357a3;fill-opacity:1;fill-rule:nonzero;stroke:none"
       d="m 233.13122,671.64208 c -4.04063,0 -5.58125,-2.39688 -5.58125,-4.79438 l 0,-11.00344 -2.69375,0 0,-2.29797 2.69375,0 0,-3.97328 4.10312,-1.0511 0,5.02438 3.74375,0 0,2.29797 -3.74375,0 0,10.80515 c 0,1.37938 0.88594,2.46392 2.62656,2.46392 0.39532,0 0.72344,-0.0652 1.11719,-0.16485 l 0,2.33156 c -0.39375,0.1636 -1.21406,0.36204 -2.26562,0.36204"
       inkscape:export-xdpi="300.03"
       inkscape:export-ydpi="300.03" />
    <path
       inkscape:connector-curvature="0"
       id="path4467"
       style="fill:#0357a3;fill-opacity:1;fill-rule:nonzero;stroke:none"
       d="m 243.50622,671.70801 c -2.39844,0 -4.6625,-0.62437 -5.8125,-1.28062 l 1.08437,-2.43219 c 0.82031,0.5261 2.4625,1.05281 4.20313,1.05281 2.10156,0 3.77656,-1.25 3.77656,-2.76062 0,-4.20344 -8.44063,-2.23204 -8.44063,-8.01203 0,-2.62766 2.5625,-5.1886 6.73282,-5.1886 2.36406,0 4.10468,0.55844 5.41874,1.28172 l -1.08437,2.19907 c -0.62344,-0.39297 -1.90469,-1.01751 -3.51406,-1.01751 -2.13438,0 -3.44844,1.1811 -3.44844,2.52812 0,3.94173 8.60469,2.20033 8.60469,8.11157 0,2.82468 -2.92188,5.51828 -7.52031,5.51828"
       inkscape:export-xdpi="300.03"
       inkscape:export-ydpi="300.03" />
    <path
       inkscape:connector-curvature="0"
       id="path4469"
       style="fill:#82b718;fill-opacity:1;fill-rule:nonzero;stroke:none"
       d="m 40.666847,648.75443 c -43.108437,-3.8947 -66.488595,54.55265 -114.216245,31.31046 l 0,-22.89923 c 47.727655,23.24719 71.107808,-12.30593 114.216245,-8.41123 l 0,0"
       inkscape:export-xdpi="300.03"
       inkscape:export-ydpi="300.03" />
    <path
       inkscape:connector-curvature="0"
       id="path4471"
       style="fill:#2870b3;fill-opacity:1;fill-rule:nonzero;stroke:none"
       d="m -73.549398,680.06489 0,22.26562 c 6.292815,3.06391 12.158275,4.69673 17.70562,5.25204 -12.615305,5.68546 -26.321405,7.54702 -43.004679,-0.5786 l 0,22.26566 c 47.729524,23.24591 71.109054,-35.20331 114.218117,-31.30926 l 0,-22.26562 c -0.03781,-0.003 -0.07625,-0.004 -0.114063,-0.008 7.85453,-3.46984 16.179688,-5.49923 25.41125,-4.66609 l 0,-22.26625 c -43.108437,-3.8947 -66.488595,54.55265 -114.216245,31.31046"
       inkscape:export-xdpi="300.03"
       inkscape:export-ydpi="300.03" />
    <path
       inkscape:connector-curvature="0"
       id="path4473"
       style="fill:#0357a3;fill-opacity:1;fill-rule:nonzero;stroke:none"
       d="m 15.255597,675.68676 c -27.980465,-2.45781 -47.65453,21.32875 -71.099375,31.89579 27.51719,2.75265 47.1100005,-21.29937 71.099375,-31.89579"
       inkscape:export-xdpi="300.03"
       inkscape:export-ydpi="300.03" />
  </g>
</svg>
